HIERARCHY
ROOT Hips
{
	OFFSET	0.00	0.00	0.00
	CHANNELS 6 Xposition Yposition Zposition Zrotation Xrotation Yrotation
	JOINT LeftHip
	{
		OFFSET	 3.430000	 0.000000	 0.000000
		CHANNELS 3 Zrotation Xrotation Yrotation
		JOINT LeftKnee
		{
			OFFSET	 0.000000	-18.469999	 0.000000
			CHANNELS 3 Zrotation Xrotation Yrotation
			JOINT LeftAnkle
			{
				OFFSET	 0.000000	-17.950001	 0.000000
				CHANNELS 3 Zrotation Xrotation Yrotation
				End Site 
				{
					OFFSET	 0.000000	-3.119996	 0.000000
				}
			}
		}
	}
	JOINT RightHip
	{
		OFFSET	-3.430000	 0.000000	 0.000000
		CHANNELS 3 Zrotation Xrotation Yrotation
		JOINT RightKnee
		{
			OFFSET	 0.000000	-18.809999	 0.000000
			CHANNELS 3 Zrotation Xrotation Yrotation
			JOINT RightAnkle
			{
				OFFSET	 0.000000	-17.570000	 0.000000
				CHANNELS 3 Zrotation Xrotation Yrotation
				End Site 
				{
					OFFSET	 0.000000	-3.250000	 0.000000
				}
			}
		}
	}
	JOINT Chest
	{
		OFFSET	 0.000000	 4.570000	 0.000000
		CHANNELS 3 Zrotation Xrotation Yrotation
		JOINT LeftCollar
		{
			OFFSET	 1.060000	 15.330000	 1.760000
			CHANNELS 3 Zrotation Xrotation Yrotation
			JOINT LeftShoulder
			{
				OFFSET	 5.810000	 0.000000	 0.000000
				CHANNELS 3 Zrotation Xrotation Yrotation
				JOINT LeftElbow
				{
					OFFSET	 0.000000	-12.080000	 0.000000
					CHANNELS 3 Zrotation Xrotation Yrotation
					JOINT LeftWrist
					{
						OFFSET	 0.000000	-9.820000	 0.000000
						CHANNELS 3 Zrotation Xrotation Yrotation
						End Site 
						{
							OFFSET	 0.000000	-7.369996	 0.000000
						}
					}
				}
			}
		}
		JOINT RightCollar
		{
			OFFSET	-1.060000	 15.330000	 1.760000
			CHANNELS 3 Zrotation Xrotation Yrotation
			JOINT RightShoulder
			{
				OFFSET	-6.060000	 0.000000	 0.000000
				CHANNELS 3 Zrotation Xrotation Yrotation
				JOINT RightElbow
				{
					OFFSET	 0.000000	-11.900000	 0.000000
					CHANNELS 3 Zrotation Xrotation Yrotation
					JOINT RightWrist
					{
						OFFSET	 0.000000	-9.520000	 0.000000
						CHANNELS 3 Zrotation Xrotation Yrotation
						End Site 
						{
							OFFSET	 0.000000	-7.140012	 0.000000
						}
					}
				}
			}
		}
		JOINT Neck
		{
			OFFSET	 0.000000	 17.620001	 0.000000
			CHANNELS 3 Zrotation Xrotation Yrotation
			JOINT Head
			{
				OFFSET	 0.000000	 5.190000	 0.000000
				CHANNELS 3 Zrotation Xrotation Yrotation
				End Site 
				{
					OFFSET	 0.000000	 4.140008	 0.000000
				}
			}
		}
	}
}

MOTION
Frames: 26
Frame Time: 0.033333
-34.0752 1.6041 -51.5978 -0.382503 1.18732 49.9407 14.7299 -13.7365 14.9033 4.71593 11.1766 -0.0130475 -20.5362 6.39234 -3.9193 -14.8229 0.881222 -25.9122 -3.26922 13.5006 2.08998 13.7992 -9.43172 1.70009 5.72434 6.29742 5.13597 0 0 0 15.2513 3.23634 0.97205 -82.029 -44.9927 -58.8609 53.0586 -24.144 -0.428375 0 0 0 -14.0477 -14.1297 2.43346 60.7893 -57.2129 48.3519 -45.1725 -26.3748 19.1036 0 0 0 -5.213 9.27867 28.1506 
-34.0664 1.6032 -51.5899 -0.383605 1.18566 49.9561 14.7403 -13.7312 14.8884 4.71182 11.1869 -0.0155963 -20.5416 6.37914 -3.92363 -14.8152 0.924999 -25.9045 -3.26971 13.4658 2.08792 13.7886 -9.35891 1.6449 5.73165 6.27417 5.16019 0 0 0 15.2587 3.24536 0.939907 -82.0158 -44.9737 -58.8605 53.0865 -24.1578 -0.409789 0 0 0 -14.0594 -14.1338 2.4037 60.8164 -57.208 48.369 -45.1968 -26.3375 19.0929 0 0 0 -5.23192 9.31613 28.1665 
-34.0606 1.6055 -51.5846 -0.380917 1.18333 49.9703 14.7474 -13.7221 14.8686 4.70472 11.1917 -0.0114171 -20.5474 6.36847 -3.92194 -14.8108 0.967551 -25.8933 -3.26986 13.4452 2.08013 13.7867 -9.32119 1.60854 5.74087 6.26188 5.1646 0 0 0 15.2547 3.23846 0.941604 -81.9907 -44.9525 -58.8462 53.1119 -24.159 -0.399929 0 0 0 -14.0706 -14.1436 2.39886 60.8362 -57.2051 48.3831 -45.2128 -26.3072 19.077 0 0 0 -5.25301 9.33834 28.1922 
-34.0564 1.6047 -51.5833 -0.373935 1.18417 49.9744 14.7413 -13.7061 14.8774 4.70702 11.1874 -0.0253823 -20.5537 6.3595 -3.92137 -14.8139 0.996677 -25.8747 -3.26863 13.4264 2.07555 13.7867 -9.29103 1.58003 5.74385 6.2429 5.1803 0 0 0 15.2517 3.24337 0.938804 -81.9869 -44.9446 -58.8526 53.1294 -24.1549 -0.400354 0 0 0 -14.0774 -14.1608 2.40368 60.8458 -57.1983 48.386 -45.2329 -26.2841 19.0655 0 0 0 -5.26636 9.34916 28.2234 
-34.0438 1.6047 -51.5733 -0.369071 1.18379 50.0044 14.7431 -13.6997 14.8461 4.69885 11.1969 -0.034252 -20.5599 6.33913 -3.92322 -14.8036 1.05743 -25.8626 -3.27138 13.384 2.05935 13.7977 -9.29343 1.55643 5.75646 6.20822 5.19243 0 0 0 15.2679 3.26599 0.908576 -82.0269 -44.9526 -58.8879 53.1664 -24.1604 -0.405413 0 0 0 -14.0977 -14.1841 2.40362 60.8815 -57.1984 48.4059 -45.2493 -26.2414 19.0487 0 0 0 -5.31053 9.38784 28.2874 
-34.0313 1.6022 -51.5683 -0.362557 1.18525 50.024 14.7389 -13.6839 14.829 4.68851 11.2105 -0.0401664 -20.5586 6.31267 -3.92654 -14.8091 1.11877 -25.8477 -3.273 13.3539 2.0592 13.8101 -9.26467 1.50301 5.77283 6.19954 5.21458 0 0 0 15.2625 3.24419 0.910559 -82.0149 -44.9327 -58.8913 53.2015 -24.1668 -0.404776 0 0 0 -14.1189 -14.2331 2.40342 60.9328 -57.1737 48.4365 -45.2814 -26.1964 19.0299 0 0 0 -5.34452 9.38324 28.3507 
-34.0162 1.5972 -51.5607 -0.351611 1.1867 50.044 14.7363 -13.6571 14.8089 4.68016 11.2209 -0.0481198 -20.5705 6.27933 -3.928 -14.8149 1.18425 -25.834 -3.27874 13.3267 2.05311 13.8157 -9.23375 1.46063 5.78432 6.17126 5.25494 0 0 0 15.2861 3.2412 0.895733 -82.0323 -44.9144 -58.9144 53.2371 -24.1641 -0.404 0 0 0 -14.1268 -14.2724 2.42943 60.962 -57.1588 48.4537 -45.3159 -26.1452 19.0079 0 0 0 -5.37117 9.40069 28.4029 
-33.9986 1.5997 -51.5582 -0.354944 1.19721 50.0453 14.7391 -13.6328 14.816 4.67311 11.2195 -0.0673879 -20.5749 6.25171 -3.92558 -14.8173 1.22751 -25.82 -3.27535 13.2915 2.05024 13.8067 -9.183 1.42679 5.79423 6.17524 5.25518 0 0 0 15.3162 3.21057 0.942379 -82.0244 -44.8882 -58.9043 53.2808 -24.1748 -0.395703 0 0 0 -14.1227 -14.3614 2.51938 60.9603 -57.1564 48.4344 -45.3318 -26.1129 18.9931 0 0 0 -5.40576 9.37536 28.5024 
-33.9861 1.5972 -51.5532 -0.351285 1.19202 50.0622 14.7413 -13.6046 14.8001 4.6704 11.2169 -0.0843105 -20.5872 6.22383 -3.91823 -14.8158 1.27014 -25.8155 -3.27726 13.2784 2.0453 13.8193 -9.20373 1.41776 5.81394 6.17157 5.23331 0 0 0 15.3444 3.186 1.01477 -82.0306 -44.8756 -58.903 53.2916 -24.1748 -0.409186 0 0 0 -14.1112 -14.4457 2.63434 60.9349 -57.155 48.3957 -45.3431 -26.092 18.9776 0 0 0 -5.43781 9.34913 28.6272 
-33.971 1.5997 -51.5457 -0.353776 1.20072 50.0904 14.7352 -13.59 14.7888 4.66334 11.2096 -0.113872 -20.5911 6.20575 -3.90814 -14.8176 1.31026 -25.8266 -3.27688 13.2544 2.04685 13.8466 -9.27077 1.42654 5.82954 6.17029 5.21127 0 0 0 15.3833 3.16425 1.07234 -82.0566 -44.879 -58.9264 53.2959 -24.1725 -0.423976 0 0 0 -14.1017 -14.5355 2.75329 60.9131 -57.1509 48.3639 -45.3723 -26.067 18.9459 0 0 0 -5.47032 9.32008 28.761 
-33.9534 1.6022 -51.5382 -0.373111 1.20843 50.122 14.7458 -13.5776 14.7552 4.64007 11.2004 -0.118762 -20.5918 6.17736 -3.90169 -14.8015 1.33671 -25.8519 -3.28841 13.237 2.0579 13.8574 -9.29574 1.40799 5.85824 6.17243 5.18554 0 0 0 15.4271 3.1232 1.12477 -82.0711 -44.8772 -58.9308 53.303 -24.1642 -0.430415 0 0 0 -14.0977 -14.6289 2.86102 60.8784 -57.1446 48.3264 -45.3927 -26.0474 18.9126 0 0 0 -5.51297 9.27601 28.8859 
-33.9384 1.6072 -51.5306 -0.393475 1.21 50.15 14.767 -13.5575 14.7392 4.62915 11.1911 -0.137311 -20.6096 6.14599 -3.89391 -14.7804 1.37548 -25.8622 -3.29255 13.2121 2.0658 13.8638 -9.27382 1.36221 5.89036 6.16165 5.15737 0 0 0 15.4591 3.08913 1.19043 -82.0757 -44.8639 -58.9354 53.3152 -24.1434 -0.433304 0 0 0 -14.0956 -14.7087 2.9604 60.859 -57.1286 48.3097 -45.4227 -26.0168 18.8708 0 0 0 -5.551 9.24509 29.013 
-33.9233 1.6172 -51.5231 -0.417421 1.22001 50.191 14.7807 -13.5474 14.7106 4.61894 11.1706 -0.154018 -20.6232 6.12969 -3.88535 -14.7536 1.40413 -25.8893 -3.29934 13.1762 2.05903 13.8692 -9.28856 1.35132 5.91233 6.13998 5.11069 0 0 0 15.5043 3.07167 1.24679 -82.094 -44.8671 -58.9455 53.3069 -24.1205 -0.440567 0 0 0 -14.0904 -14.7733 3.06295 60.8086 -57.1319 48.263 -45.4369 -25.9892 18.8353 0 0 0 -5.58822 9.22628 29.1355 
-33.9158 1.6223 -51.513 -0.434751 1.21849 50.2366 14.7988 -13.5384 14.6819 4.60901 11.1617 -0.169506 -20.6344 6.10932 -3.88671 -14.7218 1.44651 -25.9113 -3.29923 13.1336 2.05631 13.8737 -9.29705 1.32825 5.94298 6.15728 5.04055 0 0 0 15.5184 3.0295 1.31834 -82.0773 -44.8697 -58.9313 53.3074 -24.1004 -0.437869 0 0 0 -14.0964 -14.8471 3.13869 60.7932 -57.1061 48.262 -45.4771 -25.9542 18.7942 0 0 0 -5.62913 9.17446 29.2512 
-33.9057 1.6223 -51.498 -0.457892 1.22204 50.3064 14.8061 -13.5525 14.6323 4.60918 11.1539 -0.186014 -20.6585 6.0934 -3.88126 -14.6831 1.48215 -25.9529 -3.31298 13.0987 2.04914 13.8872 -9.32073 1.30351 5.98043 6.13484 5.02213 0 0 0 15.5197 2.99571 1.3138 -82.0576 -44.8686 -58.9177 53.3049 -24.0672 -0.433265 0 0 0 -14.1281 -14.8756 3.15804 60.7694 -57.0854 48.2536 -45.5231 -25.9189 18.7565 0 0 0 -5.66043 9.158 29.3082 
-33.8956 1.6248 -51.4854 -0.494308 1.23967 50.3698 14.8204 -13.5864 14.5954 4.59887 11.1542 -0.199366 -20.6699 6.078 -3.88547 -14.6442 1.50862 -26.0002 -3.32246 13.0531 2.04681 13.9017 -9.33581 1.27965 6.01461 6.11358 5.00423 0 0 0 15.5128 2.95844 1.30073 -82.0536 -44.8764 -58.9139 53.3132 -24.0206 -0.438582 0 0 0 -14.1734 -14.9139 3.16792 60.7572 -57.0541 48.2521 -45.5747 -25.8783 18.7117 0 0 0 -5.70212 9.14427 29.3354 
-33.8831 1.6248 -51.4728 -0.546464 1.26825 50.4091 14.8462 -13.6412 14.5809 4.59281 11.1683 -0.209161 -20.6812 6.05799 -3.89418 -14.6055 1.49947 -26.0337 -3.33203 13.0154 2.03962 13.8896 -9.29785 1.24384 6.03352 6.06853 5.01749 0 0 0 15.5125 2.92257 1.27736 -82.051 -44.8767 -58.9016 53.3243 -23.9752 -0.442696 0 0 0 -14.2075 -14.9456 3.17977 60.7221 -57.0403 48.2257 -45.615 -25.8358 18.689 0 0 0 -5.73612 9.12807 29.3407 
-33.8755 1.6223 -51.4578 -0.582305 1.28494 50.4621 14.8736 -13.6933 14.5549 4.58646 11.1954 -0.224879 -20.6969 6.0409 -3.89717 -14.5695 1.52507 -26.0693 -3.33187 12.9689 2.02559 13.8928 -9.31366 1.23812 6.05196 6.04107 5.02457 0 0 0 15.5002 2.88331 1.25729 -82.0352 -44.8666 -58.8862 53.3447 -23.9319 -0.433904 0 0 0 -14.2601 -14.9705 3.18977 60.6973 -57.0339 48.1963 -45.6547 -25.7851 18.6626 0 0 0 -5.76684 9.13242 29.3452 
-33.868 1.6197 -51.4427 -0.631524 1.31574 50.5088 14.8995 -13.7784 14.5223 4.57868 11.2386 -0.219 -20.7071 6.02768 -3.90402 -14.5387 1.5289 -26.106 -3.3283 12.925 2.00974 13.8879 -9.32818 1.23311 6.05774 5.99604 5.04608 0 0 0 15.5012 2.84285 1.22631 -82.0187 -44.8621 -58.8635 53.35 -23.8868 -0.437471 0 0 0 -14.3009 -14.9927 3.20812 60.6552 -57.0323 48.1648 -45.6933 -25.7382 18.635 0 0 0 -5.79273 9.14132 29.3519 
-33.8604 1.6172 -51.4276 -0.680858 1.33364 50.554 14.9383 -13.8583 14.489 4.56988 11.2895 -0.218528 -20.7248 6.00444 -3.90365 -14.5003 1.53563 -26.1407 -3.32741 12.8935 2.00384 13.8906 -9.35239 1.2262 6.07331 5.96004 5.07179 0 0 0 15.5006 2.80389 1.19263 -82.0158 -44.8574 -58.8593 53.3602 -23.8307 -0.438375 0 0 0 -14.352 -15.0197 3.21246 60.6294 -57.0126 48.1516 -45.7391 -25.6894 18.6004 0 0 0 -5.82072 9.15339 29.3565 
-33.8504 1.6147 -51.4176 -0.736236 1.36133 50.5891 14.9745 -13.9414 14.4646 4.55769 11.3346 -0.215197 -20.7357 5.98411 -3.90029 -14.4646 1.52985 -26.1704 -3.33048 12.8622 1.99775 13.8983 -9.3844 1.22297 6.08298 5.91172 5.09487 0 0 0 15.5016 2.76242 1.17196 -82.0142 -44.8525 -58.8486 53.3624 -23.7722 -0.449433 0 0 0 -14.3997 -15.0494 3.24252 60.5932 -57.0091 48.1199 -45.7672 -25.6481 18.5717 0 0 0 -5.85556 9.17065 29.3739 
-33.8429 1.6147 -51.4075 -0.761164 1.35451 50.5962 15.0279 -13.9701 14.455 4.53801 11.3744 -0.215023 -20.7444 5.96636 -3.89825 -14.4306 1.5573 -26.1649 -3.32931 12.832 1.99258 13.905 -9.4031 1.2204 6.08781 5.90719 5.12157 0 0 0 15.5105 2.73884 1.16133 -82.0036 -44.8506 -58.8437 53.3653 -23.7242 -0.443478 0 0 0 -14.4389 -15.074 3.2749 60.5804 -57.0066 48.1108 -45.7869 -25.6051 18.5402 0 0 0 -5.88198 9.18041 29.3986 
-33.8354 1.6147 -51.4 -0.777137 1.34064 50.5947 15.0765 -13.9903 14.4499 4.52523 11.4258 -0.207104 -20.7529 5.945 -3.90041 -14.398 1.58758 -26.1433 -3.33034 12.8128 1.9871 13.9228 -9.48653 1.23661 6.08565 5.90391 5.17512 0 0 0 15.5234 2.71797 1.12837 -82.0356 -44.8953 -58.8683 53.3287 -23.6565 -0.47873 0 0 0 -14.4731 -15.0824 3.2887 60.5632 -57.0167 48.0985 -45.7971 -25.5647 18.5188 0 0 0 -5.90111 9.18569 29.4379 
-33.8278 1.6122 -51.3924 -0.777546 1.31362 50.6036 15.1182 -13.9845 14.4223 4.51637 11.4697 -0.198974 -20.7752 5.91387 -3.90049 -14.3667 1.65418 -26.1256 -3.33228 12.7771 1.98415 13.9492 -9.56326 1.25261 6.09017 5.91423 5.21121 0 0 0 15.5319 2.6981 1.09912 -82.0687 -44.9308 -58.8923 53.3048 -23.593 -0.50676 0 0 0 -14.5194 -15.1049 3.2846 60.5513 -57.0082 48.0811 -45.8078 -25.5225 18.4994 0 0 0 -5.92249 9.20221 29.4821 
-33.8178 1.6122 -51.3849 -0.781562 1.2919 50.5984 15.1637 -13.9885 14.4075 4.516 11.5221 -0.189723 -20.7945 5.88886 -3.90916 -14.3385 1.70726 -26.1005 -3.32746 12.7445 1.97682 13.9747 -9.63289 1.26595 6.07969 5.9128 5.24689 0 0 0 15.5512 2.68923 1.07578 -82.1078 -44.9736 -58.9176 53.2718 -23.5308 -0.553421 0 0 0 -14.5333 -15.1166 3.28758 60.5426 -56.9953 48.0771 -45.8217 -25.4833 18.4812 0 0 0 -5.93937 9.21455 29.5286 
-33.8078 1.6072 -51.3799 -0.776084 1.25907 50.5942 15.2032 -13.966 14.4072 4.51014 11.5552 -0.201892 -20.8046 5.86393 -3.90718 -14.3095 1.76555 -26.0829 -3.33164 12.7179 1.98533 14.0007 -9.69693 1.27735 6.08131 5.92569 5.28442 0 0 0 15.5514 2.66865 1.05514 -82.1244 -45.0131 -58.9272 53.2354 -23.4801 -0.589623 0 0 0 -14.5582 -15.1377 3.27516 60.5334 -56.9778 48.0494 -45.8453 -25.4599 18.4764 0 0 0 -5.9607 9.21763 29.5754 
